<?xml version="1.0" encoding="UTF-8"?>
<svg id="_레이어_1" data-name="레이어 1" xmlns="http://www.w3.org/2000/svg" viewBox="0 0 1000 1000">
  <defs>
    <style>
      .cls-1 {
        fill: #fff;
      }
    </style>
  </defs>
  <path class="cls-1" d="M763.16,484.66c-14.15-57.31-51.68-107.83-105.66-142.27-51.91-33.11-113.28-48.33-172.8-42.86-52.35,4.82-95.03,26.42-106.86,32.93-55.83,30.7-86.4,73.54-97.91,89.67-6.59,9.24-17.62,24.7-27.62,47.18-20.34,45.76-21.25,85.57-21.63,102.57-.38,16.78-.06,27.29,2.83,41.63,5.58,27.73,19.07,50.33,37.98,63.64,11.5,8.09,24.55,12.26,36.82,11.73,20.1-.87,36.66-13.39,50.2-25.53l3.48-3.13c16.11-14.52,31.32-28.24,52.12-30.53,6.07-.67,12.52-.39,18.16,.77,13.48,2.79,25.9,10.61,36.89,23.25,2.81,3.23,5.78,7.35,8.92,11.71,6.26,8.68,12.72,17.65,20.3,23.19,11.77,8.59,26.48,12.94,43.77,12.94,.95,0,1.9-.01,2.86-.04,3.37-.09,6.03-2.9,5.94-6.27-.09-3.31-2.8-5.94-6.1-5.94-.06,0-.11,0-.17,0-15.77,.44-28.93-3.12-39.1-10.56-6.01-4.39-11.9-12.56-17.6-20.47-3.31-4.6-6.44-8.93-9.62-12.59-12.79-14.7-27.47-23.85-43.63-27.19-6.96-1.44-14.55-1.77-21.96-.96-24.71,2.72-42.12,18.42-58.96,33.6l-3.45,3.1c-11.94,10.7-26.33,21.73-42.58,22.43-9.57,.4-19.96-2.97-29.27-9.52-16.34-11.5-28.08-31.42-33.04-56.06-2.66-13.2-2.95-23.07-2.59-38.94,.37-16.27,1.24-54.37,20.59-97.88,9.49-21.35,19.67-35.61,26.4-45.04,5.91-8.28,15.71-21.99,30.38-37.27l105.24,105.24,44.57-44.57,18.33,18.33-74.82,74.82-10.46-10.46,8.43-8.43-33.83-33.83-8.43,8.43-7.99-7.99c2.44-4.09,3.85-8.87,3.85-13.97,0-15.1-12.29-27.39-27.39-27.39s-27.39,12.29-27.39,27.39,12.29,27.39,27.39,27.39c5.1,0,9.88-1.41,13.97-3.85l7.99,7.99-8.43,8.43,33.83,33.83,8.43-8.43,20.03,20.03,84.39-84.39,18.21,18.21-44.26,44.26v41.05h-23.46v-2.57h-13.18v-5.58h-29.91v5.58h-13.18v2.57h-48.15c-3.02-11.84-13.77-20.62-26.54-20.62-15.1,0-27.39,12.29-27.39,27.39s12.29,27.39,27.39,27.39c12.77,0,23.52-8.78,26.54-20.62h48.15v2.65h13.18v5.58h29.91v-5.58h13.18v-2.65h106.84l49.55-47.15c4,1,8.4-.04,11.52-3.17l12.98-12.98c2.83-2.83,3.96-6.72,3.4-10.4l96.09-91.43c10,17.15,17.66,35.63,22.48,55.14,15.65,63.36-1.31,133.8-42.2,175.27-2.37,2.4-2.34,6.26,.06,8.63,2.4,2.37,6.26,2.34,8.63-.06,44.44-45.07,62.25-118.38,45.36-186.77Zm-425.43,8.71c-7.64,0-13.86-6.22-13.86-13.86s6.22-13.86,13.86-13.86,13.86,6.22,13.86,13.86-6.22,13.86-13.86,13.86Zm39.97,10.31l23.2,23.2-3.12,3.12-23.2-23.2,3.12-3.12Zm7.4,39.01l-23.2-23.2,3.12-3.12,23.2,23.2-3.12,3.12Zm-67.61,61.98c-7.64,0-13.86-6.22-13.86-13.86s6.22-13.86,13.86-13.86,13.86,6.22,13.86,13.86-6.22,13.86-13.86,13.86Zm306.08-90.73c-3.95-.93-8.27,.13-11.35,3.21l-12.98,12.98c-2.79,2.79-3.92,6.59-3.42,10.21l-45.93,43.71h-64.44v-35.44l40.3-40.3,27.85,27.85,19.59-19.59,1.9,1.9,9.32-9.32-1.9-1.9h0s5.84,5.84,5.84,5.84l21.15-21.15-3.94-3.94,9.32-9.32-1.9-1.9,17.19-17.19c4.11,2.46,8.91,3.88,14.04,3.88,15.1,0,27.39-12.29,27.39-27.39s-12.29-27.39-27.39-27.39-27.39,12.29-27.39,27.39c0,5.07,1.39,9.83,3.81,13.91l-17.22,17.22-1.79-1.79-9.32,9.32-3.94-3.94-21.15,21.15,3.94,3.94,1.79,1.79h0l-1.79-1.79-9.32,9.32,1.79,1.79-10.02,10.02-73.96-73.96,9.17-9.16c3.82,.74,7.93-.37,10.89-3.32l12.98-12.98c2.96-2.96,4.07-7.07,3.32-10.89l6.27-6.27c3.98,2.26,8.58,3.56,13.48,3.56,15.1,0,27.39-12.29,27.39-27.39s-12.29-27.39-27.39-27.39-27.39,12.29-27.39,27.39c0,5.31,1.52,10.26,4.14,14.46l-6.07,6.07c-3.82-.74-7.93,.37-10.89,3.32l-12.98,12.98c-2.96,2.96-4.07,7.07-3.32,10.89l-9.16,9.16-21.26-21.26c2.37-4.05,3.73-8.76,3.73-13.78,0-15.1-12.29-27.39-27.39-27.39s-27.39,12.29-27.39,27.39,12.29,27.39,27.39,27.39c5.18,0,10.03-1.45,14.17-3.96l21.17,21.17-35,35-95.63-95.63c14.12-13.31,31.86-27.17,53.86-39.27,11.31-6.22,52.1-26.87,102.09-31.47,55.89-5.13,110.69,8.38,156.25,35.11l-98.46,98.46c-2.08-.8-4.34-1.25-6.71-1.25-10.31,0-18.66,8.36-18.66,18.66s8.36,18.66,18.66,18.66,18.66-8.36,18.66-18.66c0-2.98-.7-5.79-1.94-8.29l100.25-100.24c26.93,17.81,50.11,40.42,67.65,66.59l-97.95,93.2Zm6.77-77.85c0-7.64,6.22-13.86,13.86-13.86s13.86,6.22,13.86,13.86-6.22,13.86-13.86,13.86-13.86-6.22-13.86-13.86Zm-108.46-59.49c0-7.64,6.22-13.86,13.86-13.86s13.86,6.22,13.86,13.86-6.22,13.86-13.86,13.86-13.86-6.22-13.86-13.86Zm-96.73,35.71c-7.64,0-13.86-6.22-13.86-13.86s6.22-13.86,13.86-13.86,13.86,6.22,13.86,13.86-6.22,13.86-13.86,13.86Z"/>
  <path class="cls-1" d="M724.97,533.78c0-15.1-12.29-27.39-27.39-27.39s-27.39,12.29-27.39,27.39,12.29,27.39,27.39,27.39,27.39-12.29,27.39-27.39Zm-27.39,13.86c-7.64,0-13.86-6.22-13.86-13.86s6.22-13.86,13.86-13.86,13.86,6.22,13.86,13.86-6.22,13.86-13.86,13.86Z"/>
  <circle class="cls-1" cx="622.57" cy="649.67" r="37.39" transform="translate(-277.04 630.51) rotate(-45)"/>
</svg>